# xmcd CD database file
#
# Track frame offsets:
#	150
#	18457
#	35465
#
# Disc length: 716 seconds
#
# Revision: 1
# Processed by: cddbd v1.5.2PL0 Copyright (c) Steve Scherf et al.
# Submitted via: CDex 1.70beta2
#
DISCID=1b02ca03
DTITLE=WANDS - ふりむいて抱きしめて
DYEAR=1992
DGENRE=JPop
TTITLE0=ふりむいて抱きしめて
TTITLE1=BabyBabyBaby
TTITLE2=ふりむいて抱きしめて(オリジナル･カラオケ)
EXTD=YEAR: 1992
EXTT0=
EXTT1=
EXTT2=
PLAYORDER=
